<svg width="118" height="61" viewBox="0 0 118 61" fill="none" xmlns="http://www.w3.org/2000/svg">
<path d="M14.0113 37.9024L14.012 37.9024L14.0124 37.9025H14.0125L15.5918 38.0141L15.0133 36.541L15.0131 36.5406L15.0129 36.54L15.0128 36.5397L15.0126 36.5393L15.0084 36.5281C15.0039 36.5164 14.9967 36.4969 14.987 36.4698C14.9676 36.4157 14.9383 36.3316 14.9025 36.2203C14.8307 35.9975 14.7326 35.6665 14.6332 35.2487C14.434 34.4109 14.2324 33.2366 14.2215 31.8927C14.1998 29.2124 14.9318 25.9074 17.9174 23.187C20.88 20.4875 24.2111 20.2231 26.8724 20.6544C28.2074 20.8707 29.3581 21.2615 30.1757 21.5995C30.5832 21.7679 30.9046 21.9218 31.1207 22.0317C31.2287 22.0865 31.3101 22.1303 31.3626 22.1592C31.3889 22.1736 31.4079 22.1843 31.4194 22.1909L31.4307 22.1974L31.4308 22.1975L31.4314 22.1978L31.4318 22.198L31.4322 22.1983L32.8422 23.0287L32.9365 21.3945L32.9365 21.3943L32.9365 21.3941L32.9365 21.3933L32.9368 21.3895L32.9386 21.3628C32.9405 21.3376 32.9437 21.2977 32.9485 21.2438C32.9583 21.1361 32.975 20.9728 33.0021 20.7607C33.0562 20.3364 33.1519 19.7178 33.3165 18.9585C33.6463 17.4377 34.2504 15.3649 35.3448 13.1615C37.525 8.77191 41.6471 3.86013 49.4988 1.72634C57.2795 -0.388167 63.8473 2.45588 68.5453 5.92211C70.8918 7.65341 72.7468 9.52367 74.0155 10.9629C74.6489 11.6815 75.1337 12.2899 75.4583 12.7157C75.6205 12.9286 75.7425 13.0956 75.8228 13.2077C75.8629 13.2638 75.8926 13.3061 75.9117 13.3336L75.9323 13.3634L75.9366 13.3697L75.9369 13.3701L75.9372 13.3706L75.9373 13.3706L76.5265 14.2416L77.3656 13.6095L77.3659 13.6092L77.3663 13.6089L77.3669 13.6084L77.3778 13.6005C77.3886 13.5926 77.4065 13.5796 77.4312 13.562C77.4808 13.5268 77.5579 13.4733 77.6606 13.4053C77.8661 13.2692 78.1738 13.0755 78.5694 12.8545C79.3624 12.4116 80.4989 11.8647 81.8679 11.45C84.6032 10.6214 88.2111 10.3327 91.9035 12.3863C95.5334 14.4051 96.7179 17.5712 96.998 20.3148C97.1389 21.6941 97.047 22.9514 96.9183 23.8664C96.8542 24.3223 96.7815 24.689 96.7259 24.938C96.6981 25.0624 96.6747 25.1571 96.6588 25.2186C96.6508 25.2493 96.6448 25.2717 96.6411 25.2853L96.6372 25.2991L96.6372 25.2993L96.637 25.3L96.6368 25.3005L96.6367 25.3009L96.2404 26.667L97.6608 26.5759L97.661 26.5759L97.6616 26.5758L97.6617 26.5758L97.6689 26.5754L97.7042 26.5736C97.7369 26.5719 97.7876 26.5697 97.8551 26.5674C97.9902 26.5628 98.1926 26.5581 98.4524 26.5581C98.9725 26.5583 99.721 26.5778 100.621 26.6556C102.428 26.8117 104.815 27.2001 107.187 28.1193C109.558 29.0378 111.875 30.4714 113.6 32.6978C115.315 34.9123 116.5 37.9819 116.5 42.2798C116.5 46.5771 115.315 49.7493 113.584 52.1114C111.844 54.485 109.509 56.099 107.13 57.1957C104.75 58.2929 102.357 58.8576 100.549 59.1466C99.6484 59.2907 98.8993 59.3652 98.3791 59.4036C98.1192 59.4228 97.9168 59.4329 97.7817 59.4383C97.7142 59.4409 97.6635 59.4424 97.6308 59.4432L97.5955 59.4439L97.5883 59.444L97.5876 59.444L97.5874 59.444L97.5832 59.4441L59.0948 60H59.0875H14.107L14.0985 59.9995C14.0774 59.9984 14.0438 59.9963 13.9987 59.9931C13.9083 59.9866 13.7718 59.9754 13.5956 59.9568C13.243 59.9196 12.7338 59.853 12.1209 59.7363C10.8904 59.5019 9.26711 59.0699 7.66178 58.284C6.05722 57.4984 4.50219 56.3751 3.35964 54.7718C2.22578 53.1807 1.45831 51.0622 1.50175 48.2054C1.5453 45.3419 2.35623 43.3254 3.48851 41.8843C4.62955 40.4322 6.15202 39.4951 7.71948 38.8943C9.28905 38.2927 10.8687 38.0423 12.0672 37.9448C12.6635 37.8963 13.1583 37.8862 13.5005 37.8881C13.6714 37.889 13.8038 37.8929 13.8911 37.8964C13.9348 37.8982 13.9672 37.8998 13.9875 37.901L14.0088 37.9022L14.0113 37.9024Z" fill="#ADE6FF" fill-opacity="0.5" stroke="#EDFAFF" stroke-width="2"/>
</svg>
