<svg width="117" height="61" viewBox="0 0 117 61" fill="none" xmlns="http://www.w3.org/2000/svg">
<path d="M13.5113 37.9024L13.5121 37.9024L13.5125 37.9025H13.5125L15.0918 38.0141L14.5133 36.541L14.5131 36.5406L14.5129 36.54L14.5128 36.5397L14.5126 36.5393L14.5084 36.5281C14.504 36.5164 14.4967 36.4969 14.487 36.4698C14.4676 36.4157 14.4384 36.3316 14.4025 36.2203C14.3307 35.9975 14.2326 35.6665 14.1333 35.2487C13.934 34.4109 13.7324 33.2366 13.7215 31.8927C13.6998 29.2124 14.4318 25.9074 17.4174 23.187C20.38 20.4875 23.7111 20.2231 26.3724 20.6544C27.7074 20.8707 28.8582 21.2615 29.6757 21.5995C30.0833 21.7679 30.4046 21.9218 30.6207 22.0317C30.7287 22.0865 30.8101 22.1303 30.8627 22.1592C30.8889 22.1736 30.9079 22.1843 30.9194 22.1909L30.9307 22.1974L30.9309 22.1975L30.9314 22.1978L30.9319 22.198L30.9323 22.1983L32.3422 23.0287L32.4365 21.3945L32.4365 21.3943L32.4365 21.3941L32.4366 21.3933L32.4368 21.3895L32.4387 21.3628C32.4405 21.3376 32.4437 21.2977 32.4486 21.2438C32.4583 21.1361 32.475 20.9728 32.5021 20.7607C32.5563 20.3364 32.6519 19.7178 32.8166 18.9585C33.1464 17.4377 33.7505 15.3649 34.8449 13.1615C37.0251 8.77191 41.1472 3.86013 48.9988 1.72634C56.7795 -0.388166 63.3473 2.45588 68.0453 5.92211C70.3918 7.65341 72.2468 9.52367 73.5155 10.9629C74.1489 11.6815 74.6338 12.2899 74.9583 12.7157C75.1205 12.9286 75.2425 13.0956 75.3228 13.2077C75.3629 13.2638 75.3926 13.3061 75.4117 13.3336L75.4324 13.3634L75.4366 13.3697L75.4369 13.3701L75.4372 13.3705L75.4373 13.3706L76.0265 14.2416L76.8656 13.6095L76.8659 13.6092L76.866 13.6091L76.8663 13.6089L76.8669 13.6084L76.8778 13.6005C76.8886 13.5926 76.9065 13.5796 76.9313 13.562C76.9808 13.5268 77.0579 13.4733 77.1606 13.4053C77.3661 13.2692 77.6738 13.0755 78.0694 12.8545C78.8624 12.4116 79.9989 11.8647 81.3679 11.45C84.1032 10.6214 87.7111 10.3327 91.4035 12.3863C95.0334 14.4051 96.2179 17.5712 96.4981 20.3148C96.6389 21.6941 96.547 22.9514 96.4183 23.8664C96.3542 24.3223 96.2815 24.689 96.2259 24.938C96.1981 25.0624 96.1747 25.1571 96.1588 25.2186C96.1508 25.2493 96.1448 25.2717 96.1411 25.2853L96.1373 25.2991L96.1372 25.2993L96.137 25.3L96.1368 25.3005L96.1367 25.3009L95.7404 26.667L97.1608 26.5759L97.161 26.5759L97.1616 26.5758L97.1617 26.5758L97.1689 26.5754L97.2042 26.5736C97.2369 26.5719 97.2876 26.5697 97.3551 26.5674C97.4903 26.5628 97.6926 26.5581 97.9524 26.5581C98.4725 26.5583 99.221 26.5778 100.121 26.6556C101.928 26.8117 104.316 27.2001 106.687 28.1193C109.058 29.0378 111.375 30.4714 113.1 32.6978C114.815 34.9123 116 37.9819 116 42.2798C116 46.5771 114.815 49.7493 113.084 52.1114C111.344 54.485 109.009 56.099 106.63 57.1957C104.25 58.2929 101.857 58.8576 100.049 59.1466C99.1484 59.2906 98.3994 59.3652 97.8791 59.4036C97.6192 59.4228 97.4168 59.4329 97.2817 59.4383C97.2142 59.4409 97.1635 59.4424 97.1308 59.4432L97.0955 59.4439L97.0883 59.444L97.0876 59.444H97.0874L97.0832 59.4441L58.5948 60H58.5878H13.607L13.5986 59.9996C13.5774 59.9984 13.5439 59.9963 13.4987 59.9931C13.4084 59.9866 13.2718 59.9754 13.0956 59.9568C12.7431 59.9196 12.2338 59.853 11.6209 59.7363C10.3904 59.5019 8.76715 59.0699 7.16182 58.284C5.55725 57.4984 4.00223 56.3751 2.85967 54.7718C1.72582 53.1807 0.95835 51.0622 1.00179 48.2054C1.04534 45.3419 1.85627 43.3254 2.98855 41.8843C4.12959 40.4322 5.65205 39.4951 7.21952 38.8943C8.78909 38.2927 10.3688 38.0423 11.5672 37.9448C12.1636 37.8963 12.6583 37.8862 13.0005 37.8881C13.1714 37.889 13.3038 37.8929 13.3912 37.8964C13.4349 37.8982 13.4672 37.8998 13.4876 37.901L13.5088 37.9022L13.5113 37.9024Z" fill="#030010" fill-opacity="0.5" stroke="#EDFAFF" stroke-width="2"/>
</svg>
