<svg width="29" height="22" viewBox="0 0 29 22" fill="none" xmlns="http://www.w3.org/2000/svg">
<path d="M28.6324 3.13203C28.5061 2.49558 28.2239 1.91317 27.8298 1.43203C27.7467 1.3272 27.6599 1.23331 27.5658 1.13943C26.8675 0.437727 25.8875 0 24.8169 0H4.56419C3.49358 0 2.51707 0.437727 1.81553 1.13943C1.72165 1.23331 1.63482 1.3272 1.5515 1.43203C1.15719 1.91311 0.874988 2.49558 0.752144 3.13203C0.70167 3.37766 0.67627 3.6315 0.67627 3.88814V18.1122C0.67627 18.6579 0.791997 19.1825 0.998379 19.6562C1.18982 20.1083 1.47207 20.5175 1.81548 20.8606C1.90252 20.9474 1.98896 21.0272 2.08328 21.1066C2.75586 21.6636 3.62403 22 4.56419 22H24.8169C25.7574 22 26.6293 21.6636 27.298 21.1031C27.3921 21.0272 27.479 20.9474 27.5658 20.8606C27.909 20.5175 28.1912 20.1083 28.3866 19.6562V19.6527C28.5929 19.179 28.7048 18.6579 28.7048 18.1123V3.88814C28.7048 3.6315 28.6798 3.37766 28.6324 3.13203ZM3.22232 2.54605C3.56967 2.19909 4.03614 1.98904 4.56419 1.98904H24.8169C25.3449 1.98904 25.8155 2.19909 26.1588 2.54605C26.2202 2.60786 26.278 2.67673 26.3291 2.74516L15.714 11.9965C15.4213 12.2531 15.0596 12.3798 14.6905 12.3798C14.3252 12.3798 13.9638 12.2531 13.6671 11.9965L3.05607 2.74121C3.10304 2.67278 3.1609 2.60786 3.22232 2.54605ZM2.66531 18.1122V4.79951L10.3471 11.5009L2.6692 18.1952C2.66531 18.1698 2.66531 18.1412 2.66531 18.1122ZM24.8169 20.0106H4.56419C4.22035 20.0106 3.89862 19.9202 3.62403 19.7614L11.7248 12.7017L12.4811 13.3597C13.114 13.9096 13.906 14.1881 14.6905 14.1881C15.4792 14.1881 16.2711 13.9096 16.9039 13.3597L17.6598 12.7017L25.7574 19.7614C25.4825 19.9202 25.1607 20.0106 24.8169 20.0106ZM26.7158 18.1122C26.7158 18.1412 26.7158 18.1698 26.7121 18.1952L19.0342 11.5048L26.7158 4.80306V18.1122Z" fill="#D3F7FF"/>
</svg>
