<svg width="29" height="28" viewBox="0 0 29 28" fill="none" xmlns="http://www.w3.org/2000/svg">
<path d="M19.3715 9.33301C21.228 9.33301 23.0085 10.0705 24.3212 11.3833C25.634 12.696 26.3715 14.4765 26.3715 16.333V24.4997H21.7048V16.333C21.7048 15.7142 21.459 15.1207 21.0214 14.6831C20.5838 14.2455 19.9903 13.9997 19.3715 13.9997C18.7526 13.9997 18.1591 14.2455 17.7215 14.6831C17.284 15.1207 17.0381 15.7142 17.0381 16.333V24.4997H12.3715V16.333C12.3715 14.4765 13.109 12.696 14.4217 11.3833C15.7345 10.0705 17.5149 9.33301 19.3715 9.33301Z" stroke="#D3F7FF" stroke-width="2" stroke-linecap="round" stroke-linejoin="round"/>
<path d="M7.70475 10.5H3.03809V24.5H7.70475V10.5Z" stroke="#D3F7FF" stroke-width="2" stroke-linecap="round" stroke-linejoin="round"/>
<path d="M5.37142 6.99967C6.66008 6.99967 7.70475 5.95501 7.70475 4.66634C7.70475 3.37768 6.66008 2.33301 5.37142 2.33301C4.08275 2.33301 3.03809 3.37768 3.03809 4.66634C3.03809 5.95501 4.08275 6.99967 5.37142 6.99967Z" stroke="#D3F7FF" stroke-width="2" stroke-linecap="round" stroke-linejoin="round"/>
</svg>
