<svg width="28" height="26" viewBox="0 0 28 26" fill="none" xmlns="http://www.w3.org/2000/svg">
<path fill-rule="evenodd" clip-rule="evenodd" d="M3.80003 13C3.80003 7.18785 8.51169 2.47619 14.3238 2.47619C20.1359 2.47619 24.8476 7.18785 24.8476 13C24.8476 18.8121 20.1359 23.5238 14.3238 23.5238C12.2535 23.5238 10.3263 22.9272 8.70035 21.897C8.39775 21.7054 8.02695 21.6541 7.6837 21.7565L4.11905 22.8204L5.46119 19.6799C5.61983 19.3087 5.58755 18.8835 5.3747 18.5406C4.37659 16.9322 3.80003 15.0353 3.80003 13ZM14.3238 0C7.14413 0 1.32385 5.82029 1.32385 13C1.32385 15.2757 1.90964 17.4179 2.9391 19.2804L0.804404 24.2753C0.615692 24.7169 0.699339 25.2277 1.01903 25.5861C1.33872 25.9445 1.83679 26.0856 2.29695 25.9482L7.86765 24.2858C9.77064 25.3766 11.976 25.9999 14.3238 25.9999C21.5035 25.9999 27.3238 20.1797 27.3238 13C27.3238 5.82029 21.5035 0 14.3238 0ZM17.1621 15.702L15.535 16.8481C14.773 16.414 13.9304 15.8081 13.0853 14.963C12.2068 14.0844 11.5554 13.1774 11.0752 12.3454L12.1092 11.4677C12.5529 11.0911 12.6744 10.4561 12.401 9.94223L11.0835 7.46604C10.9061 7.13261 10.5862 6.8984 10.2147 6.82999C9.8433 6.76158 9.46095 6.86646 9.17638 7.11481L8.78575 7.45573C7.84638 8.27558 7.29081 9.62283 7.75127 10.987C8.22864 12.4011 9.2474 14.6268 11.3344 16.7139C13.5798 18.9593 15.8606 19.8435 17.1944 20.187C18.2691 20.4636 19.2861 20.0928 20.0027 19.5089L20.735 18.9121C21.0482 18.6569 21.2172 18.2648 21.1878 17.8618C21.1582 17.4588 20.9338 17.0956 20.5867 16.8887L18.5088 15.6506C18.0891 15.4006 17.5617 15.4207 17.1621 15.702Z" fill="#D3F7FF"/>
</svg>
