<svg xmlns="http://www.w3.org/2000/svg" width="1747" height="298" xmlns:v="https://vecta.io/nano"><path d="M1282.352 19.73c3.521 3.017 6.997 6.071 10.395 9.227 2.341 2.122 4.769 4.092 7.254 6.043l.5-2.937c1.523-5.368 5.392-9.428 9.5-13.062 5.454-2.798 11.012-2.724 17-2 6.741 2.225 11.87 6.204 17 11 3.282-1.254 6.324-2.657 9.379-4.391 21.619-11.982 47.301-20.9 72.237-14.227 18.741 5.947 35.081 18.62 46.384 34.618 4.5-.954 8.539-2.907 12.734-4.746 12.502-4.8 26.723-5.128 39.367-.574 10.395 4.735 17.944 11.931 22.273 22.57 2.208 6.71 3.901 14.921 1.625 21.75l2.852-.84 3.773-1.098 3.727-1.09c12.955-3.454 27.798-3.857 39.965 2.176 10.459 6.123 16.04 16.767 19.328 28.066 1.996 8.402 2 17.191 2.355 25.785l2.379-.621 3.184-.816 3.129-.809c16.249-3.703 34.38-2.637 49.309 5.246 16.835 10.631 27.692 25.075 32.129 44.645 1.112 5.836 1.094 11.559.996 17.48l-.027 3.188L1711 212l2.676 1.215c13.424 6.279 25.058 14.381 30.984 28.512 1.625 4.539 1.837 8.797 1.777 13.586l-.019 2.522c-.235 9.273-2.76 16.739-8.419 24.165l-1.805 2.441c-2.272 2.647-4.376 4.271-7.32 6.121l-2.633 1.691c-8.535 4.597-15.519 6.333-25.22 6.247l-3.562.017c-3.256.012-6.511.005-9.767-.009-3.558-.011-7.116.002-10.673.011l-18.772.001c-9.367-.016-18.735-.01-28.102.002l-47.895.007-48.543-.005-3.096.002-12.483.007-116.302.011-3.482-.001-3.488-.001-105.132-.008-7.036.001-28.276.004-79.047.007h-3.636c-38.245.002-76.49-.003-114.735-.012l-3.76-.001-60.448-.014c-79.904-.019-159.809-.019-239.713.001l-60.399.014-3.756.001-114.601.011h-3.634l-78.968-.007-28.256-.004-7.029-.001c-35.032-.005-70.064-.001-105.096.009l-3.481.001-3.474.001c-38.66.011-77.319.007-115.979-.014l-12.452-.006-3.087-.002c-16.136-.008-32.272-.002-48.408.009-15.863.011-31.725.007-47.588-.012-9.302-.011-18.604-.01-27.906.006-6.179.01-12.358.005-18.536-.011a1531.91 1531.91 0 0 0-10.506.003c-37.26.127-37.26.127-50.941-12.366-7.628-8.094-9.581-15.586-9.447-26.483.361-9.211 3.025-16.178 9.439-22.919C18.172 228.821 31.165 226.398 43 227l-1.5-3.562c-2.987-9.06-2.946-19.555 1.184-28.23 6.35-10.646 16.001-16.221 27.766-19.512 11.866-2.324 22.273-.643 33.551 3.305l-.48-1.703c-1.468-6.492-1.208-12.721 2.16-18.539 3.417-4.55 7.256-6.862 12.883-7.695 3.86-.251 6.86.378 10.438 1.938l-1.437-3.375c-2.88-7.776-3.544-15.785-.562-23.625 5.541-10.932 14.606-17.921 26-22 12.776-4 25.059-1.699 37 4l1-3.5c4.067-12.031 9.746-22.69 19-31.5l2.219-2.172c19.962-18.697 46.353-21.734 72.539-21.012 6.78.384 12.844 1.917 19.242 4.184l3.207 1.098C321.917 60.668 334.186 70.862 344 83c1.114-1.671 2.209-3.355 3.227-5.086 4.255-6.964 8.87-10.964 16.773-13.227 8.217-1.663 16.575-.997 23.863 3.449 3.175 2.497 5.413 5.224 7.137 8.863v3h2l.66-2.027c1.769-3.926 4.178-7.119 6.777-10.535l1.625-2.139c15.8-20.54 34.796-36.447 60.695-41.876C496.849 19.506 523.068 30.644 547 48l1.398-2.055C562.082 26.42 581.836 11.551 605.5 6.66c24.455-4.122 47.805 1.976 67.875 16.215C681.776 29.048 689.427 35.892 696 44l3.035-1.242 4.027-1.633 1.99-.816c15.672-6.33 31.313-7.249 47.373-1.43C761.007 42.861 765.932 48.565 770 57l2.5-1.687 1.676-1.105 3.617-2.445c15.341-10.217 34.175-11.716 51.957-8.637 7.047 1.559 12.994 4.349 19.25 7.875l4 2 2.438-2.312c6.681-5.514 14.617-6.218 23-6.125l2.794.014c8.131.177 14.011 1.918 20.768 6.423l1.215-2.711C907.07 39.976 911.355 33.442 918 27l2.152-2.145c17.91-16.938 44.555-23.285 68.648-23.008 22.526 1.073 44.292 9.565 60.012 26.016 2.118 2.339 4.182 4.701 6.188 7.137 3.343-.563 5.951-2.009 8.871-3.68 14.163-8.067 28.839-13.137 45.262-9.656 13.19 4.225 24.198 15.504 30.867 27.336l1.215-2.457c10.698-20.838 27.368-34.185 49.487-41.593L1197 3l3.277-1.035c28.356-7.536 59.354-.404 82.074 17.766z" fill="rgba(1, 0, 16, 0.5)"/><path d="M1282.352 19.73c3.521 3.017 6.997 6.071 10.395 9.227 2.341 2.122 4.769 4.092 7.254 6.043l.5-2.937c1.523-5.368 5.392-9.428 9.5-13.062 5.454-2.798 11.012-2.724 17-2 6.741 2.225 11.87 6.204 17 11 3.282-1.254 6.324-2.657 9.379-4.391 21.619-11.982 47.301-20.9 72.237-14.227 18.741 5.947 35.081 18.62 46.384 34.618 4.5-.954 8.539-2.907 12.734-4.746 12.502-4.8 26.723-5.128 39.367-.574 10.395 4.735 17.944 11.931 22.273 22.57 2.208 6.71 3.901 14.921 1.625 21.75l2.852-.84 3.773-1.098 3.727-1.09c12.955-3.454 27.798-3.857 39.965 2.176 10.459 6.123 16.04 16.767 19.328 28.066 1.996 8.402 2 17.191 2.355 25.785l2.379-.621 3.184-.816 3.129-.809c16.249-3.703 34.38-2.637 49.309 5.246 16.835 10.631 27.692 25.075 32.129 44.645 1.112 5.836 1.094 11.559.996 17.48l-.027 3.188L1711 212l2.676 1.215c13.424 6.279 25.058 14.381 30.984 28.512 1.625 4.539 1.837 8.797 1.777 13.586l-.019 2.522c-.235 9.273-2.76 16.739-8.419 24.165l-1.805 2.441c-2.272 2.647-4.376 4.271-7.32 6.121l-2.633 1.691c-8.535 4.597-15.519 6.333-25.22 6.247l-3.562.017c-3.256.012-6.511.005-9.767-.009-3.558-.011-7.116.002-10.673.011l-18.772.001c-9.367-.016-18.735-.01-28.102.002l-47.895.007-48.543-.005-3.096.002-12.483.007-116.302.011-3.482-.001-3.488-.001-105.132-.008-7.036.001-28.276.004-79.047.007h-3.636c-38.245.002-76.49-.003-114.735-.012l-3.76-.001-60.448-.014c-79.904-.019-159.809-.019-239.713.001l-60.399.014-3.756.001-114.601.011h-3.634l-78.968-.007-28.256-.004-7.029-.001c-35.032-.005-70.064-.001-105.096.009l-3.481.001-3.474.001c-38.66.011-77.319.007-115.979-.014l-12.452-.006-3.087-.002c-16.136-.008-32.272-.002-48.408.009-15.863.011-31.725.007-47.588-.012-9.302-.011-18.604-.01-27.906.006-6.179.01-12.358.005-18.536-.011a1531.91 1531.91 0 0 0-10.506.003c-37.26.127-37.26.127-50.941-12.366-7.628-8.094-9.581-15.586-9.447-26.483.361-9.211 3.025-16.178 9.439-22.919C18.172 228.821 31.165 226.398 43 227l-1.5-3.562c-2.987-9.06-2.946-19.555 1.184-28.23 6.35-10.646 16.001-16.221 27.766-19.512 11.866-2.324 22.273-.643 33.551 3.305l-.48-1.703c-1.468-6.492-1.208-12.721 2.16-18.539 3.417-4.55 7.256-6.862 12.883-7.695 3.86-.251 6.86.378 10.438 1.938l-1.437-3.375c-2.88-7.776-3.544-15.785-.562-23.625 5.541-10.932 14.606-17.921 26-22 12.776-4 25.059-1.699 37 4l1-3.5c4.067-12.031 9.746-22.69 19-31.5l2.219-2.172c19.962-18.697 46.353-21.734 72.539-21.012 6.78.384 12.844 1.917 19.242 4.184l3.207 1.098C321.917 60.668 334.186 70.862 344 83c1.114-1.671 2.209-3.355 3.227-5.086 4.255-6.964 8.87-10.964 16.773-13.227 8.217-1.663 16.575-.997 23.863 3.449 3.175 2.497 5.413 5.224 7.137 8.863v3h2l.66-2.027c1.769-3.926 4.178-7.119 6.777-10.535l1.625-2.139c15.8-20.54 34.796-36.447 60.695-41.876C496.849 19.506 523.068 30.644 547 48l1.398-2.055C562.082 26.42 581.836 11.551 605.5 6.66c24.455-4.122 47.805 1.976 67.875 16.215C681.776 29.048 689.427 35.892 696 44l3.035-1.242 4.027-1.633 1.99-.816c15.672-6.33 31.313-7.249 47.373-1.43C761.007 42.861 765.932 48.565 770 57l2.5-1.687 1.676-1.105 3.617-2.445c15.341-10.217 34.175-11.716 51.957-8.637 7.047 1.559 12.994 4.349 19.25 7.875l4 2 2.438-2.312c6.681-5.514 14.617-6.218 23-6.125l2.794.014c8.131.177 14.011 1.918 20.768 6.423l1.215-2.711C907.07 39.976 911.355 33.442 918 27l2.152-2.145c17.91-16.938 44.555-23.285 68.648-23.008 22.526 1.073 44.292 9.565 60.012 26.016 2.118 2.339 4.182 4.701 6.188 7.137 3.343-.563 5.951-2.009 8.871-3.68 14.163-8.067 28.839-13.137 45.262-9.656 13.19 4.225 24.198 15.504 30.867 27.336l1.215-2.457c10.698-20.838 27.368-34.185 49.487-41.593L1197 3l3.277-1.035c28.356-7.536 59.354-.404 82.074 17.766zm-127.863 10.938C1147.966 38.311 1143.342 46.206 1141 56l-1.25-2.309c-7.701-13.768-17.477-24.6-32.75-29.691-20.564-1.518-35.746 5.517-53 16l-.805-1.762C1045.017 22.923 1026.814 13.085 1011 8l-2.863-.969c-22.422-6.415-50.643-2.094-71.072 9.022-4.179 2.438-8.137 5.124-12.064 7.947l-2.109 1.488C914.317 32.155 907.247 42.672 904 53c-.163 2.711-.163 2.711 0 5h-2l-.562-2.25c-2.58-4.936-7.161-6.325-12.187-8-9.864-2.129-21.955-1.601-30.75 3.625-2.808 1.844-4.579 3.873-6.5 6.625l-1.398-1.391c-5.118-4.815-9.897-7.55-16.602-9.609l-2.156-.684c-16.473-4.205-35.235-1.898-50.105 6-5.114 3.144-9.402 6.68-12.738 11.684l-.629-2.125c-2.922-8.999-6.715-15.177-15.184-19.75-14.453-6.426-29.92-5.513-44.602-.609-2.698 1.117-4.85 2.207-7.297 3.719C698 47 698 47 695.809 47.023c-2.495-1.412-3.926-3.183-5.746-5.398-15.779-18.015-38.788-32.085-63.031-33.84-24.771-.766-46.531 9.02-64.629 25.594C556.8 38.779 552.204 44.457 548 51c-3.849-1.354-6.621-3.102-9.812-5.625-9.531-7.043-20.13-11.834-31.25-15.812l-2.09-.749c-18.174-6.202-39.855-4.401-56.91 3.874C424.384 44.708 406.917 64.68 395 88l-.48-2.195c-1.89-7.831-3.883-12.811-10.957-17.18-6.558-2.956-14.377-2.652-21.254-.965-6.946 2.715-10.802 7.379-14.121 13.902-1.097 3.176-1.782 6.109-2.187 9.438l-.891-1.547c-11.758-19.056-30.58-30.605-52.047-35.766A122.8 122.8 0 0 0 289 53l-2.047-.332c-23.014-3.15-49.483 1.939-68.41 15.773C206.828 77.547 196.312 91.006 194 106c-.063 1.436-.087 2.875-.062 4.313L194 114l-1.469-.988c-10.812-7.048-22.269-9.798-35.18-7.551-10.615 2.846-21.124 9.254-26.734 18.922-3.01 6.715-4.047 13.285-1.711 20.363.701 1.725 1.438 3.435 2.219 5.125C132 152 132 152 132 155l-2.437-.5c-7.781-1.092-13.081-1.33-19.562 3.5-3.757 3.853-4.249 6.861-4.312 12.063.092 3.766.483 7.263 1.313 10.938-3.725 1.242-4.464.554-8-.937-10.906-3.821-25.405-4.058-36 .938-9.101 4.44-16.13 10.46-20 20-.438 2.907-.475 5.751-.437 8.688l.01 2.394C42.727 218.594 44.104 224.13 47 230l-2.789-.141c-11.709-.334-23.395.698-32.672 8.652-6.21 6.005-9.715 13.214-9.977 21.926.477 9.956 2.7 17.11 9.789 24.336 10.984 9.235 24.891 11.696 38.847 11.604l3.561.013 9.735-.006 10.65.01 18.72.003 28.025.004 47.765.01 48.405.001 3.088.001 12.451.006 126.413.018 17.469-.002h3.505l76.872.004 10.519.002 28.197.005 196.849.008h3.748l41.382-.005h3.774l15.11-.002 239.038.021 60.239.017 3.746.001 114.281.017h3.623l78.734-.003 28.171-.002 7.008-.001 111.745.02 115.64-.003 12.411-.005 3.077-.001 48.282.013 47.443-.007 27.834.009 18.474-.01 10.48.004 11.265-.016 3.252.029c11.804-.114 22.887-4.501 31.825-12.272 8.252-8.59 11.397-19.941 11.266-31.555-.73-10.03-5.271-17.646-12.27-24.703-7.117-6.064-15.101-11.034-24-14l.079-2.316c.786-21.398.786-21.398-5.079-41.684l-1.469-3.203c-7.685-14.693-20.317-24.428-35.695-30.035-15.27-4.101-34.891-3.158-49.344 3.371L1615 141l1-3c1.3-17.504-.001-33.142-11.187-47.25-4.635-5.103-11.933-9.34-18.919-9.927-14.566-.366-27.3.472-40.894 6.177l.484-1.687c2.246-10.074.225-21.488-5.234-30.187-7.629-10.391-17.753-14.938-30.25-17.125-13.367-1.671-26.51 3.509-38 10l-2.02-2.492C1456.065 28.554 1438.546 13.262 1416 10c-26.96-1.708-50.7 8.699-73 23l-.914-1.902c-3.074-5.938-9.387-9.278-15.473-11.457-5.369-1.316-9.996-1.153-14.844 1.648-6.295 4.984-10.065 11.908-11.77 19.711l-1.723-1.941L1291 31l-1.629-1.871c-14.987-16.318-38.988-25.858-60.648-27.355-27.305-.701-55.273 8.753-74.234 28.895z" fill="#efeff2"/></svg>