<svg width="1440" height="679" viewBox="0 0 1440 679" fill="none" xmlns="http://www.w3.org/2000/svg">
<path d="M1080 542.63C982.8 542.63 921.6 559.727 867.6 575.196C820.8 588.629 782.64 599.62 720 599.62C655.2 599.62 619.2 589.444 572.4 575.196C518.4 559.727 459.36 542.63 360 542.63C260.64 542.63 201.6 559.727 147.6 575.196C100.8 588.629 63.36 599.62 0 599.62V679C97.2 679 158.4 661.903 212.4 646.434C259.2 633.001 296.64 622.01 360 622.01C423.36 622.01 460.8 632.186 507.6 646.434C561.6 661.903 620.64 679 720 679C819.36 679 878.4 661.903 932.4 646.434C979.2 633.001 1017.36 622.01 1080 622.01C1144.8 622.01 1180.8 632.186 1227.6 646.434C1281.6 661.903 1341.36 679 1440 679V599.62C1375.2 599.62 1339.2 589.444 1292.4 575.196C1238.4 559.727 1177.2 542.63 1080 542.63ZM1080 361.482C982.8 361.482 921.6 378.986 867.6 394.048C820.8 407.074 782.64 418.472 720 418.472C655.2 418.472 619.2 408.296 572.4 394.048C518.4 378.579 459.36 361.482 360 361.482C260.64 361.482 201.6 378.986 147.6 394.048C100.8 407.074 63.36 418.472 0 418.472V497.852C97.2 497.852 158.4 480.348 212.4 465.286C259.2 451.038 295.2 440.861 360 440.861C424.8 440.861 460.8 451.038 507.6 465.286C561.6 480.755 620.64 497.852 720 497.852C819.36 497.852 878.4 480.348 932.4 465.286C979.2 451.038 1015.2 440.861 1080 440.861C1144.8 440.861 1180.8 451.038 1227.6 465.286C1281.6 480.755 1341.36 497.852 1440 497.852V418.472C1375.2 418.472 1339.2 408.296 1292.4 394.048C1238.4 378.579 1177.2 361.482 1080 361.482ZM1292.4 32.5659C1238.4 17.0971 1178.64 0 1080 0C981.36 0 921.6 17.0971 867.6 32.5659C820.8 45.5923 782.64 56.9904 720 56.9904C655.2 56.9904 619.2 46.8135 572.4 32.5659C518.4 17.5042 459.36 0 360 0C260.64 0 201.6 17.0971 147.6 32.5659C100.8 45.9994 63.36 56.9904 0 56.9904V135.556C97.2 135.556 158.4 118.052 212.4 102.99C259.2 89.5563 296.64 78.5653 360 78.5653C423.36 78.5653 460.8 88.7422 507.6 102.99C561.6 118.459 620.64 135.556 720 135.556C819.36 135.556 878.4 118.052 932.4 102.99C979.2 89.9634 1017.36 78.5653 1080 78.5653C1144.8 78.5653 1180.8 88.7422 1227.6 102.99C1281.6 118.459 1341.36 135.556 1440 135.556V56.1763C1375.2 56.1763 1339.2 45.9994 1292.4 32.5659V32.5659ZM1080 180.334C982.8 180.334 921.6 197.838 867.6 212.9C820.8 227.147 784.8 237.324 720 237.324C655.2 237.324 619.2 227.147 572.4 212.9C518.4 197.431 459.36 180.334 360 180.334C260.64 180.334 201.6 197.838 147.6 212.9C100.8 227.147 64.8 237.324 0 237.324V316.704C97.2 316.704 158.4 299.2 212.4 284.138C259.2 271.112 297.36 259.713 360 259.713C422.64 259.713 460.8 269.89 507.6 284.138C561.6 299.607 620.64 316.704 720 316.704C819.36 316.704 878.4 299.2 932.4 284.138C979.2 271.112 1017.36 259.713 1080 259.713C1144.8 259.713 1180.8 269.89 1227.6 284.138C1281.6 299.607 1341.36 316.704 1440 316.704V237.324C1375.2 237.324 1339.2 227.147 1292.4 212.9C1238.4 197.431 1177.2 180.334 1080 180.334Z" fill="#37A49B"/>
</svg>
