<svg width="52" height="27" viewBox="0 0 52 27" fill="none" xmlns="http://www.w3.org/2000/svg">
<path d="M2.04634 26.252C1.56634 26.252 1.19434 26.108 0.930344 25.82C0.666344 25.532 0.534344 25.148 0.534344 24.668V1.952C0.534344 1.448 0.666344 1.064 0.930344 0.799998C1.21834 0.511999 1.60234 0.368 2.08234 0.368C2.51434 0.368 2.85034 0.451999 3.09034 0.619998C3.35434 0.787999 3.59434 1.076 3.81034 1.484L13.4583 19.592H12.3423L21.9903 1.484C22.2063 1.076 22.4343 0.787999 22.6743 0.619998C22.9143 0.451999 23.2503 0.368 23.6823 0.368C24.1623 0.368 24.5343 0.511999 24.7983 0.799998C25.0623 1.064 25.1943 1.448 25.1943 1.952V24.668C25.1943 25.148 25.0623 25.532 24.7983 25.82C24.5583 26.108 24.1863 26.252 23.6823 26.252C23.1783 26.252 22.7943 26.108 22.5303 25.82C22.2903 25.532 22.1703 25.148 22.1703 24.668V5.264H22.9623L14.3223 21.428C14.1303 21.74 13.9263 21.98 13.7103 22.148C13.5183 22.292 13.2423 22.364 12.8823 22.364C12.5463 22.364 12.2583 22.28 12.0183 22.112C11.8023 21.944 11.6103 21.716 11.4423 21.428L2.69434 5.228H3.55834V24.668C3.55834 25.148 3.42634 25.532 3.16234 25.82C2.92234 26.108 2.55034 26.252 2.04634 26.252ZM42.5247 26.324C40.0047 26.324 37.8447 25.796 36.0447 24.74C34.2447 23.684 32.8527 22.184 31.8687 20.24C30.9087 18.272 30.4287 15.956 30.4287 13.292C30.4287 11.3 30.7047 9.512 31.2567 7.928C31.8087 6.32 32.6007 4.952 33.6327 3.824C34.6647 2.672 35.9247 1.796 37.4127 1.196C38.9247 0.595999 40.6287 0.295998 42.5247 0.295998C43.9647 0.295998 45.3447 0.499999 46.6647 0.907999C48.0087 1.316 49.1607 1.892 50.1207 2.636C50.5047 2.9 50.7567 3.2 50.8767 3.536C50.9967 3.872 51.0087 4.196 50.9127 4.508C50.8407 4.796 50.6847 5.048 50.4447 5.264C50.2287 5.456 49.9527 5.564 49.6167 5.588C49.2807 5.588 48.9207 5.456 48.5367 5.192C47.6967 4.544 46.7727 4.076 45.7647 3.788C44.7807 3.476 43.7247 3.32 42.5967 3.32C40.7487 3.32 39.1767 3.716 37.8807 4.508C36.6087 5.276 35.6367 6.404 34.9647 7.892C34.3167 9.356 33.9927 11.156 33.9927 13.292C33.9927 15.404 34.3167 17.216 34.9647 18.728C35.6367 20.216 36.6087 21.356 37.8807 22.148C39.1767 22.916 40.7487 23.3 42.5967 23.3C43.7247 23.3 44.7927 23.144 45.8007 22.832C46.8327 22.52 47.7807 22.04 48.6447 21.392C49.0287 21.128 49.3767 21.008 49.6887 21.032C50.0247 21.056 50.3007 21.164 50.5167 21.356C50.7327 21.524 50.8767 21.764 50.9487 22.076C51.0447 22.364 51.0447 22.664 50.9487 22.976C50.8527 23.288 50.6367 23.564 50.3007 23.804C49.3167 24.644 48.1407 25.28 46.7727 25.712C45.4287 26.12 44.0127 26.324 42.5247 26.324Z" fill="#EDFAFF"/>
</svg>