<svg width="80" height="64" viewBox="0 0 80 64" fill="none" xmlns="http://www.w3.org/2000/svg">
<rect x="0.940735" y="31" width="5" height="2" fill="#EDFAFF"/>
<rect x="7.94073" y="31" width="5" height="2" fill="#EDFAFF"/>
<rect x="14.9407" y="31" width="5" height="2" fill="#EDFAFF"/>
<path d="M49.7242 60.4069L60.158 39.5394L72.3695 39.5105C73.3559 39.5107 74.3326 39.3166 75.2439 38.9393C76.1552 38.562 76.9832 38.0089 77.6808 37.3116C78.3783 36.6143 78.9317 35.7864 79.3093 34.8752C79.6869 33.9641 79.8813 32.9874 79.8815 32.0011C79.8816 31.0148 79.6875 30.0381 79.3102 29.1268C78.9329 28.2155 78.3798 27.3874 77.6825 26.6899C76.2742 25.2811 74.364 24.4895 72.372 24.4892L60.158 24.4606L49.7242 3.59306C49.6351 3.41487 49.4981 3.26501 49.3286 3.16026C49.1591 3.05552 48.9638 3.00003 48.7646 3L40.1809 3C40.0222 3 39.8654 3.03522 39.722 3.10312C39.5785 3.17102 39.4518 3.26992 39.3512 3.39268C39.2506 3.51543 39.1784 3.65899 39.14 3.813C39.1015 3.96701 39.0977 4.12764 39.1288 4.2833L43.1639 24.4591L36.3335 24.4591L32.3561 20.4816C32.1548 20.2804 31.8819 20.1673 31.5973 20.1673L23.0137 20.1673C22.8383 20.1672 22.6657 20.2102 22.5108 20.2924C22.3559 20.3746 22.2235 20.4935 22.1252 20.6386C22.0269 20.7838 21.9657 20.9509 21.9469 21.1252C21.9281 21.2996 21.9524 21.4758 22.0175 21.6386L26.1499 31.9697L22.0175 42.3008C21.9524 42.4636 21.9281 42.6399 21.9469 42.8142C21.9657 42.9886 22.0269 43.1556 22.1252 43.3008C22.2235 43.446 22.3559 43.5649 22.5108 43.6471C22.6657 43.7293 22.8383 43.7722 23.0137 43.7722L31.5973 43.7722C31.8792 43.7722 32.1498 43.6613 32.3506 43.4634L36.3291 39.5409L43.1639 39.5409L39.1288 59.7167C39.0977 59.8724 39.1015 60.033 39.1399 60.187C39.1784 60.341 39.2506 60.4846 39.3512 60.6073C39.4518 60.7301 39.5785 60.829 39.722 60.8969C39.8654 60.9648 40.0222 61 40.1809 61L48.7646 61C48.9638 61 49.1591 60.9445 49.3286 60.8397C49.4981 60.735 49.6351 60.5851 49.7242 60.4069ZM41.4898 58.8541L45.5249 38.6783C45.556 38.5227 45.5522 38.362 45.5138 38.208C45.4753 38.054 45.4031 37.9105 45.3025 37.7877C45.2019 37.6649 45.0752 37.566 44.9317 37.4981C44.7883 37.4302 44.6315 37.395 44.4728 37.395L35.8891 37.395C35.6072 37.395 35.3367 37.506 35.1359 37.7039L31.1574 41.6263L24.5985 41.6263L28.3017 32.3682C28.404 32.1124 28.404 31.8271 28.3017 31.5713L24.5985 22.3132L31.1529 22.3132L35.1304 26.2906C35.3316 26.4918 35.6045 26.6049 35.8891 26.605L44.4728 26.605C44.6315 26.605 44.7883 26.5698 44.9317 26.5019C45.0752 26.4339 45.2019 26.3351 45.3025 26.2123C45.4031 26.0895 45.4753 25.946 45.5137 25.792C45.5522 25.638 45.556 25.4773 45.5249 25.3217L41.4898 5.14591L48.1014 5.14591L58.5344 26.0119C58.6234 26.1897 58.76 26.3393 58.929 26.444C59.098 26.5488 59.2928 26.6045 59.4916 26.605L72.3695 26.6351C73.7924 26.6354 75.1568 27.201 76.1626 28.2073C77.1685 29.2136 77.7334 30.5783 77.7331 32.0011C77.7327 33.4239 77.1672 34.7884 76.1609 35.7942C75.1546 36.8001 73.7899 37.365 72.3671 37.3646L59.4916 37.395C59.2928 37.3955 59.098 37.4512 58.929 37.5559C58.76 37.6607 58.6234 37.8103 58.5344 37.9881L48.1014 58.8541L41.4898 58.8541Z" fill="#EDFAFF"/>
</svg>
