<svg width="42" height="42" viewBox="0 0 42 42" fill="none" xmlns="http://www.w3.org/2000/svg">
<path d="M30.1058 11.7781C27.6741 9.34062 24.4357 8 20.9942 8C13.8906 8 8.11027 13.7804 8.11027 20.8839C8.11027 23.1531 8.70223 25.3701 9.82812 27.3259L8 34L14.8308 32.2067C16.7112 33.2339 18.8295 33.7737 20.9884 33.7737H20.9942C28.092 33.7737 34 27.9933 34 20.8897C34 17.4482 32.5375 14.2156 30.1058 11.7781ZM20.9942 31.6031C19.0674 31.6031 17.1812 31.0866 15.5388 30.1116L15.15 29.8795L11.0991 30.9415L12.1786 26.9893L11.9232 26.583C10.8496 24.8768 10.2866 22.9094 10.2866 20.8839C10.2866 14.9817 15.092 10.1763 21 10.1763C23.8612 10.1763 26.5482 11.2906 28.5679 13.3161C30.5875 15.3415 31.8295 18.0286 31.8237 20.8897C31.8237 26.7978 26.8964 31.6031 20.9942 31.6031ZM26.8674 23.5826C26.5482 23.4201 24.9638 22.6424 24.6679 22.5379C24.3719 22.4277 24.1571 22.3754 23.9424 22.7004C23.7277 23.0254 23.1125 23.7451 22.921 23.9656C22.7353 24.1804 22.5437 24.2094 22.2246 24.0469C20.3326 23.1009 19.0906 22.358 17.8429 20.2165C17.5121 19.6478 18.1737 19.6884 18.7888 18.458C18.8933 18.2433 18.8411 18.0576 18.7598 17.8951C18.6786 17.7326 18.0344 16.1482 17.7674 15.504C17.5063 14.8772 17.2393 14.9643 17.042 14.9527C16.8562 14.9411 16.6415 14.9411 16.4268 14.9411C16.2121 14.9411 15.8638 15.0223 15.5679 15.3415C15.2719 15.6665 14.442 16.4442 14.442 18.0286C14.442 19.6129 15.5969 21.1451 15.7536 21.3598C15.9161 21.5746 18.0228 24.8246 21.2554 26.2232C23.2982 27.1054 24.0991 27.1808 25.1205 27.0299C25.7415 26.9371 27.0241 26.2522 27.2911 25.4978C27.558 24.7433 27.558 24.0991 27.4768 23.9656C27.4013 23.8205 27.1866 23.7393 26.8674 23.5826Z" fill="white"/>
<rect x="1" y="1" width="40" height="40" stroke="white" stroke-width="2"/>
</svg>
