<svg width="16" height="16" viewBox="0 0 16 16" fill="none" xmlns="http://www.w3.org/2000/svg">
<path d="M4.89089 6.34059C5.52456 6.1256 6.02516 5.6283 6.24671 4.99689C6.89674 3.14428 9.46257 2.97738 10.3282 4.73958L10.5654 5.22249C10.8112 5.72281 11.2345 6.11366 11.7528 6.31882C13.485 7.00449 13.6742 9.38093 12.0723 10.332L11.5126 10.6644C11.1418 10.8846 10.8325 11.1948 10.6135 11.5663L10.3272 12.0521C9.36576 13.6831 6.95633 13.5213 6.22165 11.7764C6.01055 11.2751 5.62876 10.8646 5.14395 10.6179L4.60291 10.3426C2.88594 9.46874 3.06649 6.95958 4.89089 6.34059Z" fill="#030010"/>
</svg>
