<svg width="7" height="8" viewBox="0 0 7 8" fill="none" xmlns="http://www.w3.org/2000/svg">
<path d="M6.16692 3.67633L6.182 3.67637C6.18706 3.67797 6.19258 3.6798 6.19851 3.68186C6.23994 3.6963 6.29206 3.71929 6.34088 3.75257C6.42578 3.81046 6.5 3.89258 6.5 4.06863C6.5 4.16986 6.47613 4.21254 6.46602 4.22771C6.45383 4.246 6.43399 4.26443 6.39894 4.28195C6.36194 4.30046 6.31888 4.3122 6.28085 4.31854C6.26302 4.32151 6.24926 4.3228 6.24191 4.32333C6.24059 4.32342 6.23952 4.32349 6.23871 4.32353L6.2244 4.32355L6.16692 4.32367C6.11749 4.3238 6.04691 4.32407 5.96204 4.32461C5.7925 4.32569 5.56507 4.32785 5.33493 4.3322C5.10602 4.33652 4.86942 4.34308 4.6834 4.35322C4.59164 4.35823 4.50382 4.36453 4.43257 4.37299C4.39826 4.37706 4.35622 4.38294 4.31504 4.39215C4.295 4.39664 4.26367 4.40442 4.22858 4.41752L4.22774 4.41784C4.2059 4.42598 4.11871 4.45851 4.03863 4.53858C3.95311 4.62409 3.92097 4.71855 3.91331 4.74107L3.91291 4.74224C3.90033 4.7791 3.89337 4.81187 3.88949 4.83246C3.88149 4.87495 3.87701 4.9183 3.87412 4.95358C3.86811 5.02695 3.86494 5.11763 3.86328 5.21258C3.8599 5.40508 3.86218 5.65029 3.8665 5.88777C3.87084 6.12649 3.87734 6.36248 3.88274 6.53846C3.88544 6.62655 3.88788 6.69981 3.88964 6.75112L3.89056 6.7774C3.88995 6.77969 3.8893 6.78211 3.88858 6.78466C3.88007 6.81468 3.86579 6.85125 3.84426 6.88437C3.81572 6.92827 3.76054 7 3.56863 7C3.36643 7 3.25716 6.91662 3.18612 6.83304C3.15334 6.79447 3.12869 6.75484 3.11136 6.72193C3.11299 6.67348 3.11503 6.611 3.11726 6.53846C3.12266 6.36248 3.12915 6.12648 3.13349 5.88776C3.13781 5.65028 3.14009 5.40508 3.13671 5.21258C3.13505 5.11763 3.13189 5.02696 3.12587 4.95359C3.12298 4.91832 3.11851 4.87496 3.11051 4.83248C3.10663 4.8119 3.09967 4.77913 3.0871 4.74227L3.0867 4.7411C3.07904 4.71859 3.04692 4.62413 2.96142 4.53863C2.87887 4.45607 2.78892 4.42386 2.76544 4.41546L2.76523 4.41538C2.72821 4.40213 2.69534 4.39471 2.67456 4.39056C2.63194 4.38203 2.58911 4.37734 2.55516 4.37437C2.48449 4.36817 2.39835 4.36497 2.30953 4.36329C2.12921 4.35989 1.90062 4.3622 1.68015 4.36652C1.45837 4.37087 1.23934 4.37738 1.07613 4.38278C0.994425 4.38549 0.926478 4.38792 0.878879 4.38968L0.823521 4.39178L0.823285 4.39178C0.813975 4.39111 0.797735 4.38954 0.77705 4.38609C0.732589 4.37868 0.68095 4.36479 0.635365 4.342C0.591739 4.32019 0.563323 4.29532 0.544697 4.26738C0.528158 4.24257 0.499998 4.18702 0.5 4.06864C0.500003 3.8594 0.590096 3.76145 0.689121 3.69544C0.745568 3.6578 0.805488 3.63233 0.85297 3.6165C0.86024 3.61407 0.867002 3.61195 0.873171 3.6101L0.878878 3.61032C0.926476 3.61208 0.994423 3.61451 1.07613 3.61722C1.23934 3.62262 1.45836 3.62913 1.68015 3.63348C1.90061 3.63781 2.1292 3.64011 2.30952 3.63671C2.39834 3.63503 2.48448 3.63183 2.55516 3.62563C2.58911 3.62266 2.63193 3.61797 2.67455 3.60944C2.69533 3.60529 2.7282 3.59788 2.76522 3.58462L2.76542 3.58455C2.7889 3.57614 2.87883 3.54395 2.96137 3.46142C3.04689 3.37591 3.07903 3.28145 3.08669 3.25893L3.08709 3.25776C3.09967 3.2209 3.10663 3.18813 3.11051 3.16754C3.11851 3.12505 3.12299 3.0817 3.12588 3.04642C3.13189 2.97305 3.13506 2.88237 3.13672 2.78742C3.1401 2.59492 3.13782 2.34971 3.1335 2.11223C3.12916 1.87352 3.12266 1.63752 3.11726 1.46154C3.11456 1.37345 3.11212 1.30019 3.11036 1.24888L3.10954 1.22544C3.1098 1.22455 3.11007 1.22364 3.11035 1.22272C3.11844 1.19575 3.13249 1.16161 3.15471 1.12987C3.18317 1.08922 3.25472 1 3.5 1C3.74528 1 3.81683 1.08922 3.84529 1.12987C3.86751 1.16161 3.88156 1.19575 3.88965 1.22272C3.88993 1.22364 3.8902 1.22455 3.89046 1.22544L3.88964 1.24889C3.88788 1.3002 3.88544 1.37346 3.88274 1.46154C3.87735 1.63752 3.87085 1.87352 3.86651 2.11224C3.86219 2.34972 3.85991 2.59492 3.86329 2.78742C3.86495 2.88237 3.86811 2.97304 3.87413 3.04641C3.87702 3.08168 3.88149 3.12504 3.88949 3.16752C3.89337 3.1881 3.90033 3.22087 3.9129 3.25773L3.9133 3.2589C3.92096 3.28141 3.95308 3.37587 4.03858 3.46137C4.11868 3.54148 4.20589 3.57401 4.22772 3.58216L4.22856 3.58247C4.26365 3.59558 4.29499 3.60336 4.31504 3.60784C4.35621 3.61706 4.39826 3.62294 4.43257 3.62701C4.50381 3.63547 4.59163 3.64177 4.6834 3.64678C4.86941 3.65692 5.10601 3.66348 5.33493 3.6678C5.56507 3.67215 5.79249 3.67431 5.96204 3.67539C6.04691 3.67593 6.11749 3.6762 6.16692 3.67633Z" stroke="#030010"/>
</svg>
