<svg width="7" height="8" viewBox="0 0 7 8" fill="none" xmlns="http://www.w3.org/2000/svg">
<path d="M2.60784 1.18627C2.60784 1.18627 2.67647 0.5 3.5 0.5C4.32353 0.5 4.39216 1.18627 4.39216 1.18627C4.39216 1.18627 4.32354 3.03922 4.39216 3.10784C4.46078 3.17647 6.2451 3.17647 6.2451 3.17647C6.2451 3.17647 7 3.31373 7 4.06863C7 4.82353 6.2451 4.82353 6.2451 4.82353C6.2451 4.82353 4.46079 4.82353 4.39216 4.89216C4.32352 4.96078 4.39216 6.81373 4.39216 6.81373C4.39216 6.81373 4.32353 7.5 3.56863 7.5C2.81373 7.5 2.60784 6.81373 2.60784 6.81373C2.60784 6.81373 2.67646 4.96078 2.60784 4.89216C2.53922 4.82353 0.823529 4.89216 0.823529 4.89216C0.823529 4.89216 -1.25028e-05 4.89216 1.42362e-10 4.06863C1.25031e-05 3.2451 0.823529 3.10784 0.823529 3.10784C0.823529 3.10784 2.53921 3.17647 2.60784 3.10784C2.67648 3.03922 2.60784 1.18627 2.60784 1.18627Z" fill="#030010"/>
</svg>
