<svg width="16" height="16" viewBox="0 0 16 16" fill="none" xmlns="http://www.w3.org/2000/svg">
<path d="M5.21218 7.28757C6.13833 6.97334 6.86749 6.248 7.19031 5.32798C7.5515 4.29856 8.96229 4.22703 9.43066 5.18048L9.66788 5.66339C10.0233 6.38683 10.6353 6.95198 11.3848 7.24863C12.3445 7.62853 12.4493 8.94521 11.5618 9.47219L11.0021 9.80452C10.4865 10.1106 10.0566 10.542 9.75207 11.0585L10.6135 11.5663L9.75207 11.0585L9.46569 11.5443C8.92184 12.4669 7.55888 12.3754 7.14328 11.3884C6.8405 10.6693 6.29289 10.0806 5.59751 9.72668L5.05648 9.45133C4.12816 8.97888 4.22578 7.62224 5.21218 7.28757Z" stroke="#030010" stroke-width="2"/>
</svg>
