<svg width="66" height="40" viewBox="0 0 66 40" fill="none" xmlns="http://www.w3.org/2000/svg">
<path d="M0.111562 39.176C0.271562 38.696 0.735563 37.592 1.50356 35.864C2.30356 34.168 3.35956 31.896 4.67156 29.048C6.01556 26.168 7.59956 22.76 9.42356 18.824C11.2476 14.888 13.2796 10.456 15.5196 5.528C15.6476 5.272 15.7436 5 15.8076 4.712C15.9036 4.424 15.9516 4.168 15.9516 3.944C15.9516 3.624 15.8556 3.368 15.6636 3.176C15.4716 2.984 15.1036 2.888 14.5596 2.888C13.2156 2.888 12.1116 3.304 11.2476 4.136C10.4156 4.936 9.79156 5.928 9.37556 7.112C8.99156 8.296 8.79956 9.464 8.79956 10.616C8.79956 10.904 8.81556 11.24 8.84756 11.624C8.87956 12.008 8.92756 12.44 8.99156 12.92C8.22356 12.92 7.58356 12.696 7.07156 12.248C6.59156 11.768 6.22356 11.192 5.96756 10.52C5.71156 9.816 5.58356 9.16 5.58356 8.552C5.58356 7.528 5.87156 6.536 6.44756 5.576C7.05556 4.616 7.83956 3.752 8.79956 2.984C9.75956 2.184 10.8156 1.56 11.9676 1.112C13.1516 0.663999 14.3196 0.439999 15.4716 0.439999C16.6556 0.439999 17.6636 0.775998 18.4956 1.448C19.3276 2.088 19.9676 3.272 20.4156 5C20.8636 6.696 21.0876 9.144 21.0876 12.344C21.0876 14.424 21.0076 16.536 20.8476 18.68C20.7196 20.792 20.5756 22.776 20.4156 24.632C20.2556 26.488 20.1756 28.072 20.1756 29.384C20.8156 27.496 21.5996 25.496 22.5276 23.384C23.4876 21.24 24.5116 19.128 25.5996 17.048C26.6876 14.936 27.7596 12.952 28.8156 11.096C29.8716 9.24 30.8156 7.624 31.6476 6.248C32.5116 4.84 33.1676 3.8 33.6156 3.128C34.0636 2.424 34.4636 1.896 34.8156 1.544C35.1676 1.192 35.6476 1.016 36.2556 1.016C36.7036 1.016 37.4076 1.192 38.3676 1.544C38.0796 2.152 37.7436 3.128 37.3596 4.472C36.9756 5.784 36.5596 7.32 36.1116 9.08C35.6316 11 35.1516 13.112 34.6716 15.416C34.1916 17.688 33.7596 19.992 33.3756 22.328C32.9916 24.664 32.6716 26.888 32.4156 29C32.1916 31.08 32.0796 32.92 32.0796 34.52C32.0796 35.352 32.1116 36.008 32.1756 36.488C32.2716 36.968 32.3836 37.384 32.5116 37.736C32.6716 38.12 32.8476 38.6 33.0396 39.176C31.6636 39.176 30.6076 38.968 29.8716 38.552C29.1676 38.136 28.6876 37.464 28.4316 36.536C28.2076 35.64 28.0956 34.44 28.0956 32.936C28.0956 29.384 28.4956 25.656 29.2956 21.752C30.1276 17.816 31.0876 13.768 32.1756 9.608C31.2796 10.888 30.3516 12.408 29.3916 14.168C28.4316 15.928 27.4876 17.784 26.5596 19.736C25.6316 21.688 24.7516 23.624 23.9196 25.544C23.0876 27.432 22.3516 29.192 21.7116 30.824C21.0716 32.424 20.5756 33.768 20.2236 34.856C19.9356 34.952 19.7276 35.016 19.5996 35.048C19.5036 35.08 19.3756 35.096 19.2156 35.096C18.0956 35.096 17.3756 34.424 17.0556 33.08C16.7676 31.704 16.6236 29.832 16.6236 27.464C16.6236 26.216 16.6396 24.888 16.6716 23.48C16.7036 22.04 16.7516 20.584 16.8156 19.112C16.8796 17.608 16.9276 16.12 16.9596 14.648C16.9916 13.176 17.0076 11.768 17.0076 10.424C17.0076 9.944 16.9916 9.464 16.9596 8.984C16.9596 8.504 16.9596 8.04 16.9596 7.592C14.5276 13.256 12.4636 18.104 10.7676 22.136C9.10356 26.136 7.67956 29.4 6.49556 31.928C5.31156 34.424 4.22356 36.248 3.23156 37.4C2.23956 38.584 1.19956 39.176 0.111562 39.176ZM50.2734 39.176C47.8414 39.176 45.8414 38.6 44.2734 37.448C42.7374 36.296 41.6014 34.808 40.8654 32.984C40.1614 31.16 39.8094 29.272 39.8094 27.32C39.8094 24.792 40.1934 22.264 40.9614 19.736C41.7294 17.176 42.7854 14.744 44.1294 12.44C45.5054 10.136 47.0574 8.088 48.7854 6.296C50.5134 4.504 52.3534 3.096 54.3054 2.072C56.2894 1.016 58.2574 0.487998 60.2094 0.487998C61.6174 0.487998 62.8014 0.823998 63.7614 1.496C64.7214 2.136 65.2014 3.256 65.2014 4.856C65.2014 5.816 65.0254 6.888 64.6734 8.072C64.3534 9.256 63.9054 10.408 63.3294 11.528C62.7854 12.616 62.1614 13.512 61.4574 14.216C60.7534 14.92 60.0334 15.272 59.2974 15.272C58.9774 15.272 58.6414 15.16 58.2894 14.936C57.9374 14.712 57.6174 14.328 57.3294 13.784C57.8094 13.24 58.3534 12.584 58.9614 11.816C59.5694 11.016 60.1454 10.184 60.6894 9.32C61.2334 8.424 61.6814 7.56 62.0334 6.728C62.3854 5.864 62.5614 5.112 62.5614 4.472C62.5614 3.896 62.4014 3.448 62.0814 3.128C61.7614 2.776 61.2014 2.6 60.4014 2.6C58.9934 2.6 57.5374 3.128 56.0334 4.184C54.5614 5.24 53.1374 6.664 51.7614 8.456C50.3854 10.216 49.1374 12.2 48.0174 14.408C46.9294 16.584 46.0654 18.84 45.4254 21.176C44.7854 23.48 44.4654 25.672 44.4654 27.752C44.4654 29.288 44.6894 30.76 45.1374 32.168C45.6174 33.544 46.3694 34.664 47.3934 35.528C48.4174 36.424 49.7614 36.872 51.4254 36.872C53.1534 36.872 54.8654 36.392 56.5614 35.432C58.2894 34.472 59.8574 33.208 61.2654 31.64C62.7054 30.072 63.8574 28.392 64.7214 26.6L65.9694 27.416C64.8494 29.56 63.5054 31.528 61.9374 33.32C60.3694 35.08 58.5934 36.488 56.6094 37.544C54.6574 38.632 52.5454 39.176 50.2734 39.176Z" fill="#F3F3F3"/>
</svg>
