<svg width="16" height="16" viewBox="0 0 16 16" fill="none" xmlns="http://www.w3.org/2000/svg">
<path d="M5.43364 6.15644C5.7247 6.05769 5.95418 5.83057 6.05595 5.54055L7.21038 2.25043C7.50396 1.41371 8.66057 1.34472 9.05153 2.14061L10.777 5.65327C10.8866 5.87639 11.0754 6.05069 11.3066 6.14218L14.106 7.25029C14.8785 7.55606 14.9628 8.61581 14.2485 9.03996L11.168 10.869C11.0233 10.9549 10.9026 11.076 10.8171 11.221L9.01073 14.2854C8.59317 14.9937 7.54671 14.9234 7.22763 14.1656L6.03672 11.3372C5.94504 11.1195 5.77922 10.9412 5.56865 10.834L2.11423 9.07599C1.32558 8.67463 1.40852 7.52211 2.2465 7.23779L5.43364 6.15644Z" fill="#EDFAFF"/>
</svg>
