<svg width="62" height="51" viewBox="0 0 62 51" fill="none" xmlns="http://www.w3.org/2000/svg">
<g clip-path="url(#clip0_35_157)">
<path d="M62 7.06375C59.7466 8.06309 57.325 8.7385 54.7833 9.04227C57.3776 7.48714 59.3698 5.02474 60.308 2.09079C57.8803 3.53055 55.1912 4.57626 52.3292 5.13989C50.037 2.69788 46.7715 1.17188 43.1577 1.17188C36.2183 1.17188 30.5924 6.79761 30.5924 13.7365C30.5924 14.7213 30.7037 15.6803 30.9179 16.5999C20.4751 16.076 11.2167 11.0737 5.01947 3.47186C3.93792 5.32761 3.31829 7.48602 3.31829 9.78869C3.31829 14.1478 5.53673 17.9938 8.90819 20.2469C6.84835 20.1817 4.91105 19.6165 3.21681 18.6754C3.21591 18.7279 3.21591 18.7805 3.21591 18.8334C3.21591 24.9213 7.54706 29.9997 13.2951 31.1539C12.2407 31.4411 11.1307 31.5945 9.98459 31.5945C9.17499 31.5945 8.38779 31.5159 7.62076 31.3691C9.21957 36.3611 13.8599 39.9938 19.3581 40.0953C15.0579 43.4652 9.64005 45.4739 3.75333 45.4739C2.7392 45.4739 1.73897 45.4146 0.755981 45.2985C6.31653 48.8635 12.9212 50.9435 20.017 50.9435C43.1284 50.9435 55.7665 31.7975 55.7665 15.1935C55.7665 14.6487 55.7544 14.1068 55.7302 13.5681C58.185 11.7966 60.3154 9.58349 62 7.06375Z" fill="#BC6C25"/>
</g>
<defs>
<clipPath id="clip0_35_157">
<rect width="61.244" height="50" fill="white" transform="translate(0.755981 0.975342)"/>
</clipPath>
</defs>
</svg>
