<svg width="71" height="50" viewBox="0 0 71 50" fill="none" xmlns="http://www.w3.org/2000/svg">
<path d="M69.4758 7.82258C68.6694 4.75807 66.25 2.33871 63.1855 1.49194C57.6613 3.57628e-07 35.4839 0 35.4839 0C35.4839 0 13.3065 3.57628e-07 7.74194 1.49194C4.67742 2.29839 2.29839 4.71774 1.45161 7.82258C2.38419e-07 13.3871 0 25 0 25C0 25 -1.19209e-07 36.6129 1.49194 42.1774C2.29839 45.2419 4.71774 47.6613 7.78226 48.5081C13.3065 50 35.4839 50 35.4839 50C35.4839 50 57.6613 50 63.2258 48.5081C66.2903 47.7016 68.6694 45.2823 69.5161 42.1774C70.9677 36.6129 70.9677 25 70.9677 25C70.9677 25 70.9677 13.3871 69.4758 7.82258Z" fill="#BC6C25"/>
<path d="M28.2258 35.5646V14.4355L46.7742 25.0001L28.2258 35.5646Z" fill="#FEFAE0"/>
</svg>
