<svg width="118" height="61" viewBox="0 0 118 61" fill="none" xmlns="http://www.w3.org/2000/svg">
<path d="M13.7613 37.9024L13.7621 37.9024L13.7625 37.9025H13.7625L15.3418 38.0141L14.7633 36.541L14.7631 36.5406L14.7629 36.54L14.7628 36.5397L14.7626 36.5393L14.7584 36.5281C14.754 36.5164 14.7467 36.4969 14.737 36.4698C14.7176 36.4157 14.6884 36.3316 14.6525 36.2203C14.5807 35.9975 14.4826 35.6665 14.3833 35.2487C14.184 34.4109 13.9824 33.2366 13.9715 31.8927C13.9498 29.2124 14.6818 25.9074 17.6674 23.187C20.63 20.4875 23.9611 20.2231 26.6224 20.6544C27.9574 20.8707 29.1082 21.2615 29.9257 21.5995C30.3333 21.7679 30.6546 21.9218 30.8707 22.0317C30.9787 22.0865 31.0601 22.1303 31.1127 22.1592C31.1389 22.1736 31.1579 22.1843 31.1694 22.1909L31.1807 22.1974L31.1809 22.1975L31.1814 22.1978L31.1819 22.198L31.1823 22.1983L32.5922 23.0287L32.6865 21.3945L32.6865 21.3943L32.6865 21.3941L32.6866 21.3933L32.6868 21.3895L32.6887 21.3628C32.6905 21.3376 32.6937 21.2977 32.6986 21.2438C32.7083 21.1361 32.725 20.9728 32.7521 20.7607C32.8063 20.3364 32.9019 19.7178 33.0666 18.9585C33.3964 17.4377 34.0005 15.3649 35.0949 13.1615C37.2751 8.77191 41.3972 3.86013 49.2488 1.72634C57.0295 -0.388166 63.5973 2.45588 68.2953 5.92211C70.6418 7.65341 72.4968 9.52367 73.7655 10.9629C74.3989 11.6815 74.8838 12.2899 75.2083 12.7157C75.3705 12.9286 75.4925 13.0956 75.5728 13.2077C75.6129 13.2638 75.6426 13.3061 75.6617 13.3336L75.6824 13.3634L75.6866 13.3697L75.6869 13.3701L75.6872 13.3705L75.6873 13.3706L76.2765 14.2416L77.1156 13.6095L77.1159 13.6092L77.116 13.6091L77.1163 13.6089L77.1169 13.6084L77.1278 13.6005C77.1386 13.5926 77.1565 13.5796 77.1813 13.562C77.2308 13.5268 77.3079 13.4733 77.4106 13.4053C77.6161 13.2692 77.9238 13.0755 78.3194 12.8545C79.1124 12.4116 80.2489 11.8647 81.6179 11.45C84.3532 10.6214 87.9611 10.3327 91.6535 12.3863C95.2834 14.4051 96.4679 17.5712 96.7481 20.3148C96.8889 21.6941 96.797 22.9514 96.6683 23.8664C96.6042 24.3223 96.5315 24.689 96.4759 24.938C96.4481 25.0624 96.4247 25.1571 96.4088 25.2186C96.4008 25.2493 96.3948 25.2717 96.3911 25.2853L96.3873 25.2991L96.3872 25.2993L96.387 25.3L96.3868 25.3005L96.3867 25.3009L95.9904 26.667L97.4108 26.5759L97.411 26.5759L97.4116 26.5758L97.4117 26.5758L97.4189 26.5754L97.4542 26.5736C97.4869 26.5719 97.5376 26.5697 97.6051 26.5674C97.7403 26.5628 97.9426 26.5581 98.2024 26.5581C98.7225 26.5583 99.471 26.5778 100.371 26.6556C102.178 26.8117 104.566 27.2001 106.937 28.1193C109.308 29.0378 111.625 30.4714 113.35 32.6978C115.065 34.9123 116.25 37.9819 116.25 42.2798C116.25 46.5771 115.065 49.7493 113.334 52.1114C111.594 54.485 109.259 56.099 106.88 57.1957C104.5 58.2929 102.107 58.8576 100.299 59.1466C99.3984 59.2906 98.6494 59.3652 98.1291 59.4036C97.8692 59.4228 97.6668 59.4329 97.5317 59.4383C97.4642 59.4409 97.4135 59.4424 97.3808 59.4432L97.3455 59.4439L97.3383 59.444L97.3376 59.444H97.3374L97.3332 59.4441L58.8448 60H58.8378H13.857L13.8486 59.9996C13.8274 59.9984 13.7939 59.9963 13.7487 59.9931C13.6584 59.9866 13.5218 59.9754 13.3456 59.9568C12.9931 59.9196 12.4838 59.853 11.8709 59.7363C10.6404 59.5019 9.01715 59.0699 7.41182 58.284C5.80725 57.4984 4.25223 56.3751 3.10967 54.7718C1.97582 53.1807 1.20835 51.0622 1.25179 48.2054C1.29534 45.3419 2.10627 43.3254 3.23855 41.8843C4.37959 40.4322 5.90205 39.4951 7.46952 38.8943C9.03909 38.2927 10.6188 38.0423 11.8172 37.9448C12.4136 37.8963 12.9083 37.8862 13.2505 37.8881C13.4214 37.889 13.5538 37.8929 13.6412 37.8964C13.6849 37.8982 13.7172 37.8998 13.7376 37.901L13.7588 37.9022L13.7613 37.9024Z" fill="#EDFAFF" fill-opacity="0.5" stroke="#030010" stroke-width="2"/>
</svg>
