<svg width="118" height="61" viewBox="0 0 118 61" fill="none" xmlns="http://www.w3.org/2000/svg">
<path d="M14.2613 37.9024L14.2621 37.9024L14.2625 37.9025H14.2625L15.8418 38.0141L15.2633 36.541L15.2631 36.5406L15.2629 36.54L15.2628 36.5397L15.2626 36.5393L15.2584 36.5281C15.254 36.5164 15.2467 36.4969 15.237 36.4698C15.2176 36.4157 15.1884 36.3316 15.1525 36.2203C15.0807 35.9975 14.9826 35.6665 14.8833 35.2487C14.684 34.4109 14.4824 33.2366 14.4715 31.8927C14.4498 29.2124 15.1818 25.9074 18.1674 23.187C21.13 20.4875 24.4611 20.2231 27.1224 20.6544C28.4574 20.8707 29.6082 21.2615 30.4257 21.5995C30.8333 21.7679 31.1546 21.9218 31.3707 22.0317C31.4787 22.0865 31.5601 22.1303 31.6127 22.1592C31.6389 22.1736 31.6579 22.1843 31.6694 22.1909L31.6807 22.1974L31.6809 22.1975L31.6814 22.1978L31.6819 22.198L31.6823 22.1983L33.0922 23.0287L33.1865 21.3945L33.1865 21.3943L33.1865 21.3941L33.1866 21.3933L33.1868 21.3895L33.1887 21.3628C33.1905 21.3376 33.1937 21.2977 33.1986 21.2438C33.2083 21.1361 33.225 20.9728 33.2521 20.7607C33.3063 20.3364 33.4019 19.7178 33.5666 18.9585C33.8964 17.4377 34.5005 15.3649 35.5949 13.1615C37.7751 8.77191 41.8972 3.86013 49.7488 1.72634C57.5295 -0.388166 64.0973 2.45588 68.7953 5.92211C71.1418 7.65341 72.9968 9.52367 74.2655 10.9629C74.8989 11.6815 75.3838 12.2899 75.7083 12.7157C75.8705 12.9286 75.9925 13.0956 76.0728 13.2077C76.1129 13.2638 76.1426 13.3061 76.1617 13.3336L76.1824 13.3634L76.1866 13.3697L76.1869 13.3701L76.1872 13.3705L76.1873 13.3706L76.7765 14.2416L77.6156 13.6095L77.6159 13.6092L77.616 13.6091L77.6163 13.6089L77.6169 13.6084L77.6278 13.6005C77.6386 13.5926 77.6565 13.5796 77.6813 13.562C77.7308 13.5268 77.8079 13.4733 77.9106 13.4053C78.1161 13.2692 78.4238 13.0755 78.8194 12.8545C79.6124 12.4116 80.7489 11.8647 82.1179 11.45C84.8532 10.6214 88.4611 10.3327 92.1535 12.3863C95.7834 14.4051 96.9679 17.5712 97.2481 20.3148C97.3889 21.6941 97.297 22.9514 97.1683 23.8664C97.1042 24.3223 97.0315 24.689 96.9759 24.938C96.9481 25.0624 96.9247 25.1571 96.9088 25.2186C96.9008 25.2493 96.8948 25.2717 96.8911 25.2853L96.8873 25.2991L96.8872 25.2993L96.887 25.3L96.8868 25.3005L96.8867 25.3009L96.4904 26.667L97.9108 26.5759L97.911 26.5759L97.9116 26.5758L97.9117 26.5758L97.9189 26.5754L97.9542 26.5736C97.9869 26.5719 98.0376 26.5697 98.1051 26.5674C98.2403 26.5628 98.4426 26.5581 98.7024 26.5581C99.2225 26.5583 99.971 26.5778 100.871 26.6556C102.678 26.8117 105.066 27.2001 107.437 28.1193C109.808 29.0378 112.125 30.4714 113.85 32.6978C115.565 34.9123 116.75 37.9819 116.75 42.2798C116.75 46.5771 115.565 49.7493 113.834 52.1114C112.094 54.485 109.759 56.099 107.38 57.1957C105 58.2929 102.607 58.8576 100.799 59.1466C99.8984 59.2906 99.1494 59.3652 98.6291 59.4036C98.3692 59.4228 98.1668 59.4329 98.0317 59.4383C97.9642 59.4409 97.9135 59.4424 97.8808 59.4432L97.8455 59.4439L97.8383 59.444L97.8376 59.444H97.8374L97.8332 59.4441L59.3448 60H59.3378H14.357L14.3486 59.9996C14.3274 59.9984 14.2939 59.9963 14.2487 59.9931C14.1584 59.9866 14.0218 59.9754 13.8456 59.9568C13.4931 59.9196 12.9838 59.853 12.3709 59.7363C11.1404 59.5019 9.51715 59.0699 7.91182 58.284C6.30725 57.4984 4.75223 56.3751 3.60967 54.7718C2.47582 53.1807 1.70835 51.0622 1.75179 48.2054C1.79534 45.3419 2.60627 43.3254 3.73855 41.8843C4.87959 40.4322 6.40205 39.4951 7.96952 38.8943C9.53909 38.2927 11.1188 38.0423 12.3172 37.9448C12.9136 37.8963 13.4083 37.8862 13.7505 37.8881C13.9214 37.889 14.0538 37.8929 14.1412 37.8964C14.1849 37.8982 14.2172 37.8998 14.2376 37.901L14.2588 37.9022L14.2613 37.9024Z" fill="#030240" fill-opacity="0.5" stroke="#030010" stroke-width="2"/>
</svg>
